<svg width="34" height="35" viewBox="0 0 34 35" fill="none" xmlns="http://www.w3.org/2000/svg">
<g clip-path="url(#clip0_74_10564)">
<path d="M0.725664 16.9275C0.724867 19.8064 1.47712 22.6176 2.90751 25.0953L0.588867 33.561L9.25249 31.2894C11.6487 32.5939 14.3336 33.2774 17.0619 33.2776H17.069C26.0757 33.2776 33.4074 25.9486 33.4112 16.9404C33.4129 12.5752 31.7145 8.4705 28.6288 5.38235C25.5435 2.29446 21.4403 0.592996 17.0684 0.591003C8.06063 0.591003 0.729516 7.9196 0.725797 16.9275" fill="url(#paint0_linear_74_10564)"/>
<path d="M0.142109 16.9224C0.14118 19.905 0.920391 22.8167 2.40178 25.3831L0 34.1523L8.97427 31.7993C11.447 33.1475 14.231 33.8583 17.0639 33.8594H17.0712C26.401 33.8594 33.996 26.2667 34 16.936C34.0016 12.414 32.2421 8.16173 29.0461 4.96294C25.8497 1.76455 21.5997 0.00185938 17.0712 0C7.73978 0 0.145828 7.59156 0.142109 16.9224ZM5.48662 24.9411L5.15153 24.4092C3.74292 22.1695 2.99944 19.5812 3.0005 16.9235C3.00342 9.16791 9.3152 2.85812 17.0765 2.85812C20.8351 2.85972 24.3674 4.32491 27.0242 6.98328C29.6808 9.64192 31.1427 13.1761 31.1417 16.9349C31.1383 24.6905 24.8264 31.0011 17.0712 31.0011H17.0656C14.5404 30.9998 12.0639 30.3216 9.90409 29.0401L9.39011 28.7353L4.06459 30.1316L5.48662 24.9411Z" fill="url(#paint1_linear_74_10564)"/>
<path d="M12.8401 9.84715C12.5232 9.14285 12.1897 9.12864 11.8884 9.11629C11.6416 9.10566 11.3595 9.10646 11.0777 9.10646C10.7956 9.10646 10.3372 9.21258 9.94983 9.63558C9.56202 10.059 8.46924 11.0822 8.46924 13.1632C8.46924 15.2443 9.98503 17.2556 10.1963 17.5381C10.4079 17.82 13.1226 22.2273 17.422 23.9228C20.9952 25.3318 21.7223 25.0515 22.4978 24.9809C23.2734 24.9105 25.0005 23.958 25.3529 22.9702C25.7055 21.9826 25.7055 21.1361 25.5998 20.9592C25.4941 20.7829 25.212 20.6771 24.789 20.4656C24.366 20.2542 22.2863 19.2308 21.8986 19.0896C21.5108 18.9485 21.2288 18.8781 20.9467 19.3017C20.6646 19.7246 19.8546 20.6771 19.6077 20.9592C19.3611 21.2419 19.1142 21.2771 18.6913 21.0656C18.268 20.8533 16.9058 20.4072 15.2896 18.9663C14.0321 17.8451 13.1832 16.4606 12.9364 16.037C12.6896 15.6141 12.91 15.3849 13.1221 15.1741C13.3121 14.9846 13.5452 14.6802 13.7569 14.4333C13.9678 14.1863 14.0382 14.01 14.1792 13.7279C14.3204 13.4456 14.2498 13.1985 14.1442 12.987C14.0382 12.7754 13.2162 10.6835 12.8401 9.84715Z" fill="white"/>
</g>
<defs>
<linearGradient id="paint0_linear_74_10564" x1="1641.71" y1="3297.6" x2="1641.71" y2="0.591003" gradientUnits="userSpaceOnUse">
<stop stop-color="#1FAF38"/>
<stop offset="1" stop-color="#60D669"/>
</linearGradient>
<linearGradient id="paint1_linear_74_10564" x1="1700" y1="3415.23" x2="1700" y2="0" gradientUnits="userSpaceOnUse">
<stop stop-color="#F9F9F9"/>
<stop offset="1" stop-color="white"/>
</linearGradient>
<clipPath id="clip0_74_10564">
<rect width="34" height="34.2656" fill="white"/>
</clipPath>
</defs>
</svg>
