<svg width="15" height="17" viewBox="0 0 15 17" fill="none" xmlns="http://www.w3.org/2000/svg">
<g clip-path="url(#clip0_21_1924)">
<path d="M8.94019 14.9409C8.68958 15.5376 8.52392 16.1851 8.46045 16.8641L13.764 15.6536C14.0146 15.0571 14.1801 14.4095 14.2437 13.7305L8.94019 14.9409Z" fill="black"/>
<path d="M13.7637 12.0283C14.0143 11.4318 14.1799 10.7842 14.2434 10.1052L10.1121 11.0486V9.23504L13.7635 8.4019C14.0142 7.80539 14.1798 7.15777 14.2433 6.47876L10.112 7.42135V0.899265C9.47898 1.28089 8.91678 1.78887 8.45977 2.38807V7.79855L6.80754 8.17561V0.012207C6.1745 0.393697 5.61231 0.901814 5.1553 1.50101V8.55254L1.45842 9.396C1.2078 9.99252 1.04202 10.6401 0.978424 11.3191L5.1553 10.3661V12.6499L0.678961 13.6713C0.428345 14.2678 0.262685 14.9154 0.199219 15.5944L4.8847 14.5253C5.26612 14.4401 5.59394 14.198 5.80708 13.8648L6.66636 12.497V12.4967C6.75557 12.3552 6.80754 12.1846 6.80754 12.0008V9.98903L8.45977 9.61197V13.2391L13.7635 12.0281L13.7637 12.0283Z" fill="black"/>
</g>
<defs>
<clipPath id="clip0_21_1924">
<rect width="13.9616" height="16.9533" fill="white" transform="translate(0.199707 0.012207)"/>
</clipPath>
</defs>
</svg>
